# xmcd
#
# Track frame offsets:
#	150
#	12097
#	20727
#	27593
#	36392
#	48547
#	59591
#	70265
#	80570
#	91579
#	102157
#	112929
#	123416
#	133063
#
# Disc length: 1889 seconds
#
# Revision: 0
# Processed by: cddbd v1.5.1PL0 Copyright (c) Steve Scherf et al.
# Submitted via: dBpowerAMP V4.0
#
DISCID=bd075f0e
DTITLE=Waylon Jennings - The Best of Waylon Jennings
DYEAR=1900
DGENRE=Country
TTITLE0=Crying
TTITLE1=Abilene
TTITLE2=It's So Easy
TTITLE3=Love's Gonna Live Here
TTITLE4=Don't Think Twice, It's All Right
TTITLE5=Dream Baby
TTITLE6=Burning Memories
TTITLE7=White Lightning
TTITLE8=Big Mamou
TTITLE9=Money
TTITLE10=Sally Was A Good Old Girl
TTITLE11=Lorena
TTITLE12=When Sin Stops
TTITLE13=Jolie Blond
EXTD=\nWaylon Jennings
EXTT0=
EXTT1=
EXTT2=
EXTT3=
EXTT4=
EXTT5=
EXTT6=
EXTT7=
EXTT8=
EXTT9=
EXTT10=
EXTT11=
EXTT12=
EXTT13=
PLAYORDER=
